<?xml version="1.0" encoding="utf-8"?>
<!DOCTYPE svg PUBLIC "-//W3C//DTD SVG 1.1//EN" "http://www.w3.org/Graphics/SVG/1.1/DTD/svg11.dtd">
<svg version="1.1" id="Ebene_1"
     xmlns="http://www.w3.org/2000/svg" xmlns:xlink="http://www.w3.org/1999/xlink" x="0px" y="0px" viewBox="0 0 11 11"
     style="enable-background:new 0 0 11 11;" xml:space="preserve">
<style type="text/css">
    .st0{fill:#666666;}
    .st1{fill:#FFC857;}
    .st2{fill:#79A548;}
    .st3{fill:#5599FF;}
    .st4{fill:#DDDDDD;}
    .st5{opacity:0.3;enable-background:new    ;}
    .st6{fill:#FFFFFF;}
</style>
    <switch>
    <g>
        <g>
            <path class="st0" d="M7.9,0H7.4C5.9,0,4.7,1.2,4.7,2.6v1.2c0,0.6,0.3,1.4,0.8,2c0,0.1,0,0.2,0,0.3c-0.1,0-0.2,0.1-0.3,0.1
                C4.7,6.5,4.3,6.7,3.7,6.8l-0.1,0L3.5,6.9C3.3,7.1,2.1,7.8,2.1,10v1h11v-1c0-2.3-1.2-3-1.4-3.1l-0.1,0l-0.1,0
                c-0.6-0.2-1-0.4-1.5-0.6c-0.1,0-0.2-0.1-0.3-0.1c0-0.1,0-0.2-0.1-0.3c0.5-0.6,0.8-1.3,0.8-2V2.6C10.5,1.2,9.4,0,7.9,0L7.9,0z"/>
            <path class="st1" d="M11.3,7.8C10.3,7.5,9.7,7.2,9,6.9C8.9,6.7,8.8,6.3,8.8,5.5C9.2,5,9.5,4.4,9.5,3.9V2.6C9.5,1.7,8.8,1,7.9,1
                H7.4C6.5,1,5.7,1.7,5.7,2.6v1.2C5.7,4.4,6,5,6.5,5.5l0,0c0,0.8-0.2,1.2-0.2,1.4C5.6,7.2,4.9,7.5,4,7.8c0,0-0.8,0.5-0.8,2.2h4.5
                h4.5C12.1,8.2,11.3,7.8,11.3,7.8z"/>
            <path class="st2" d="M11.3,7.8C10.3,7.5,9.7,7.2,9,6.9c0,0.1,0,0.2,0,0.3c-0.7,0.7-2.1,0.7-2.7,0C6.2,7.1,6.2,7,6.3,6.9
                C5.6,7.2,4.9,7.5,4,7.8c0,0-0.8,0.5-0.8,2.2h4.5h4.5C12.1,8.2,11.3,7.8,11.3,7.8z"/>
        </g>
        <g>
            <path class="st0" d="M2.9,2.4H2.5c-1.1,0-2.1,0.9-2.1,2.1v1C0.4,5.9,0.6,6.5,1,7c0,0.1,0,0.2,0,0.2c-0.1,0-0.1,0.1-0.2,0.1
                C0.4,7.5,0,7.6-0.4,7.7l-0.1,0l-0.1,0c-0.2,0.1-1.1,0.7-1.1,2.4V11H7v-0.8c0-1.8-0.9-2.3-1.1-2.4l-0.1,0l-0.1,0
                C5.3,7.6,5,7.5,4.6,7.3c-0.1,0-0.1-0.1-0.2-0.1c0-0.1,0-0.2,0-0.3C4.7,6.5,5,5.9,5,5.4v-1C5,3.3,4,2.4,2.9,2.4L2.9,2.4z"/>
            <path class="st1" d="M5.5,8.5C4.8,8.3,4.3,8,3.8,7.8c0-0.2-0.2-0.5-0.2-1.1c0.4-0.4,0.6-0.9,0.6-1.3v-1c0-0.7-0.6-1.3-1.3-1.3
                H2.5c-0.7,0-1.3,0.6-1.3,1.3v1c0,0.4,0.3,0.9,0.6,1.3l0,0c0,0.7-0.1,0.9-0.2,1.1C1.1,8,0.6,8.3-0.2,8.5c0,0-0.6,0.4-0.7,1.7h3.5
                h3.5C6.2,8.8,5.5,8.5,5.5,8.5z"/>
            <path class="st3" d="M5.5,8.5C4.8,8.3,4.3,8,3.8,7.8c0,0.1,0,0.2,0,0.2C3.2,8.6,2.1,8.5,1.6,8c-0.1-0.1-0.1-0.1,0-0.2
                C1.1,8,0.6,8.3-0.2,8.5c0,0-0.6,0.4-0.7,1.7h3.5h3.5C6.2,8.8,5.5,8.5,5.5,8.5z"/>
        </g>
        <g>
            <path class="st0" d="M10.4,6.3C10,6,9.6,5.8,9.2,5.8L8,5.8C7.5,5.8,7.1,6,6.8,6.3c0,0,0,0,0,0C6.5,6,6,5.8,5.6,5.8l-1.2,0
                C4,5.8,3.5,6,3.2,6.3C2.9,6.6,2.8,7,2.8,7.4l0,0.3c0,0.4,0.2,0.9,0.5,1.2S4,9.4,4.4,9.4h1.2c0.5,0,0.9-0.2,1.2-0.5c0,0,0,0,0,0
                C7.1,9.2,7.5,9.4,8,9.4h1.2c0.9,0,1.7-0.7,1.7-1.7l0-0.3C10.8,7,10.7,6.6,10.4,6.3L10.4,6.3z"/>
            <path class="st4" d="M9.9,6.7C9.7,6.5,9.5,6.4,9.2,6.4H8c-0.6,0-1,0.5-1,1v0.3c0,0.6,0.5,1,1,1l1.2,0c0.6,0,1-0.5,1-1l0-0.3
                C10.2,7.1,10.1,6.9,9.9,6.7z M9.5,7c0.1,0.1,0.2,0.3,0.2,0.6c0,0.4-0.2,0.7-0.5,0.7H7.9C7.7,8.3,7.4,8,7.4,7.6
                c0-0.4,0.2-0.7,0.5-0.7l1.3,0C9.3,6.9,9.4,6.9,9.5,7z"/>
            <path class="st4" d="M6.3,6.7C6.1,6.5,5.9,6.4,5.6,6.4l-1.2,0c-0.6,0-1,0.5-1,1v0.3c0,0.6,0.5,1,1,1l1.2,0c0.6,0,1-0.5,1-1V7.4
                C6.6,7.1,6.5,6.9,6.3,6.7z M5.9,7c0.1,0.1,0.2,0.3,0.2,0.6c0,0.4-0.2,0.7-0.5,0.7l-1.3,0C4.1,8.3,3.8,8,3.8,7.6
                c0-0.4,0.2-0.7,0.5-0.7h1.3C5.8,6.9,5.9,6.9,5.9,7z"/>
            <path class="st5" d="M7,7.4v0.3C7,7.9,7,8.1,7.1,8.3h0.8c-0.3,0-0.5-0.3-0.5-0.7C7.6,7.6,7,7.3,7,7.4z"/>
            <path class="st5" d="M6.6,7.4v0.3c0,0.2-0.1,0.4-0.2,0.6H5.7c0.3,0,0.5-0.3,0.5-0.7C6,7.6,6.6,7.3,6.6,7.4z"/>
            <path class="st6" d="M5.5,7.1h2.7c0.2,0,0.3,0.2,0.3,0.5l0,0C8.4,7.8,8.3,8,8.1,8H5.5C5.3,8,5.2,7.8,5.2,7.6l0,0
                C5.2,7.3,5.3,7.1,5.5,7.1z"/>
        </g>
    </g>
</switch>
</svg>
